<svg width="18" height="19" viewBox="0 0 18 19" fill="none" xmlns="http://www.w3.org/2000/svg">
<path d="M12.7618 16.5286C12.7618 16.5711 12.7458 16.6119 12.7173 16.642C12.6887 16.6721 12.65 16.689 12.6096 16.689H1.97535C1.93498 16.689 1.89626 16.6721 1.86771 16.642C1.83916 16.6119 1.82312 16.5711 1.82312 16.5286V5.32465C1.82312 5.28211 1.83916 5.24132 1.86771 5.21124C1.89626 5.18116 1.93498 5.16426 1.97535 5.16426H8.51671L10.3398 3.24348H1.97535C1.4516 3.24399 0.949446 3.46342 0.5791 3.8536C0.208754 4.24379 0.000482717 4.77284 0 5.32465V16.5286C0.000482717 17.0804 0.208754 17.6094 0.5791 17.9996C0.949446 18.3898 1.4516 18.6092 1.97535 18.6097H12.6096C13.1334 18.6092 13.6355 18.3898 14.0059 17.9996C14.3762 17.6094 14.5845 17.0804 14.585 16.5286V9.6368L12.7618 11.5576V16.5286Z" fill="white"/>
<path d="M17.1957 1.45331C16.6828 0.913173 15.9874 0.609741 15.2623 0.609741C14.5371 0.609741 13.8417 0.913173 13.3288 1.45331L6.23781 8.92323C6.11071 9.05737 6.02412 9.22812 5.98895 9.41399L5.34448 12.8099C5.31744 12.9495 5.3202 13.0936 5.35256 13.2319C5.38493 13.3702 5.44608 13.4992 5.53159 13.6095C5.6171 13.7198 5.72483 13.8087 5.84697 13.8697C5.96912 13.9308 6.10262 13.9624 6.23781 13.9624C6.29898 13.9622 6.36 13.9561 6.42012 13.9442L9.64248 13.2652C9.81901 13.2278 9.9811 13.1363 10.1083 13.002L17.1984 5.53209C17.4528 5.26428 17.6545 4.94625 17.792 4.5962C17.9296 4.24616 18.0003 3.87096 18 3.4921C17.9997 3.11324 17.9286 2.73816 17.7906 2.38831C17.6525 2.03847 17.4504 1.72074 17.1957 1.45331ZM15.9067 2.8113C15.9915 2.9005 16.0587 3.00642 16.1046 3.12301C16.1505 3.2396 16.1741 3.36457 16.1741 3.49078C16.1741 3.61699 16.1505 3.74196 16.1046 3.85855C16.0587 3.97514 15.9915 4.08106 15.9067 4.17026L15.4181 4.68407L14.1292 3.32607L14.6178 2.8113C14.7887 2.63126 15.0205 2.53011 15.2623 2.53011C15.504 2.53011 15.7358 2.63126 15.9067 2.8113ZM9.01168 11.4347L7.40005 11.7746L7.72274 10.0757L12.8402 4.68407L14.1292 6.04206L9.01168 11.4347Z" fill="white"/>
</svg>
