<svg width="21" height="21" viewBox="0 0 21 21" fill="none" xmlns="http://www.w3.org/2000/svg">
<g id="Social icon" clip-path="url(#clip0_4374_23541)">
<path id="Vector" d="M20.3052 10.7302C20.3052 10.0504 20.2501 9.36699 20.1325 8.69824H10.7002V12.5491H16.1016C15.8775 13.791 15.1573 14.8897 14.1027 15.5878V18.0864H17.3252C19.2176 16.3448 20.3052 13.7726 20.3052 10.7302Z" fill="#4285F4"/>
<path id="Vector_2" d="M10.6999 20.5008C13.397 20.5008 15.6714 19.6152 17.3286 18.0867L14.1061 15.588C13.2096 16.198 12.0521 16.5434 10.7036 16.5434C8.09474 16.5434 5.88272 14.7833 5.08904 12.417H1.76367V14.9928C3.46127 18.3696 6.91892 20.5008 10.6999 20.5008Z" fill="#34A853"/>
<path id="Vector_3" d="M5.08564 12.4168C4.66676 11.1748 4.66676 9.82995 5.08564 8.58799V6.01221H1.76395C0.345611 8.83785 0.345611 12.1669 1.76395 14.9925L5.08564 12.4168Z" fill="#FBBC04"/>
<path id="Vector_4" d="M10.6999 4.45805C12.1256 4.436 13.5035 4.97247 14.536 5.95722L17.3911 3.10218C15.5833 1.40459 13.1838 0.471278 10.6999 0.500674C6.91892 0.500674 3.46126 2.63185 1.76367 6.01234L5.08537 8.58813C5.87537 6.21811 8.09106 4.45805 10.6999 4.45805Z" fill="#EA4335"/>
</g>
<defs>
<clipPath id="clip0_4374_23541">
<rect width="20" height="20" fill="white" transform="translate(0.5 0.5)"/>
</clipPath>
</defs>
</svg>
