<svg width="12" height="12" viewBox="0 0 12 12" fill="none" xmlns="http://www.w3.org/2000/svg">
<g id="sale-percent">
<path id="Vector" d="M10.3908 4.58829C10.2968 4.50054 10.2227 4.39369 10.1734 4.27492C10.1242 4.15616 10.1009 4.02823 10.1053 3.89973C10.1135 3.6347 10.0674 3.3708 9.96968 3.12427C9.872 2.87775 9.72485 2.65384 9.5373 2.46635C9.35061 2.27818 9.12685 2.13083 8.88021 2.03363C8.63358 1.93642 8.36943 1.89149 8.10452 1.90166C7.97604 1.90329 7.84858 1.87857 7.73003 1.82903C7.61148 1.7795 7.50434 1.70619 7.41523 1.61365C7.23433 1.42 7.01553 1.2656 6.77243 1.16004C6.52933 1.05447 6.26711 1 6.00207 1C5.73702 1 5.47481 1.05447 5.2317 1.16004C4.9886 1.2656 4.7698 1.42 4.5889 1.61365C4.49952 1.7057 4.39229 1.77854 4.27376 1.82771C4.15524 1.87688 4.02792 1.90134 3.89961 1.8996C3.63438 1.88892 3.36984 1.93382 3.123 2.03142C2.87616 2.12903 2.65247 2.27718 2.46631 2.46635C2.27923 2.65406 2.13256 2.87807 2.03533 3.12458C1.9381 3.37109 1.89236 3.63489 1.90094 3.89973C1.905 4.02838 1.88143 4.15641 1.83182 4.27518C1.78222 4.39396 1.70772 4.50073 1.61335 4.58829C1.41978 4.76922 1.26546 4.98798 1.15995 5.231C1.05444 5.47402 1 5.73611 1 6.00103C1 6.26595 1.05444 6.52805 1.15995 6.77107C1.26546 7.01408 1.41978 7.23284 1.61335 7.41377C1.70734 7.50152 1.78146 7.60837 1.83071 7.72714C1.87995 7.84591 1.9032 7.97384 1.89888 8.10233C1.88973 8.36714 1.93515 8.63101 2.03233 8.87752C2.1295 9.12404 2.27635 9.34795 2.46374 9.53534C2.65113 9.72272 2.87507 9.86958 3.12164 9.96679C3.36821 10.064 3.63214 10.1095 3.89703 10.1004C4.02557 10.0975 4.1533 10.1215 4.27207 10.1707C4.39084 10.22 4.49804 10.2934 4.58683 10.3864C4.76774 10.58 4.98654 10.7344 5.22964 10.84C5.47274 10.9455 5.73496 11 6 11C6.26505 11 6.52726 10.9455 6.77036 10.84C7.01346 10.7344 7.23226 10.58 7.41317 10.3864C7.50174 10.2933 7.60883 10.2197 7.72754 10.1705C7.84625 10.1212 7.97396 10.0974 8.10245 10.1004C8.36739 10.1095 8.63138 10.0641 8.878 9.96695C9.12463 9.86977 9.34863 9.72293 9.53608 9.53553C9.72353 9.34814 9.87043 9.1242 9.96763 8.87765C10.0648 8.63109 10.1103 8.36719 10.1011 8.10233C10.0968 7.97384 10.12 7.84591 10.1693 7.72714C10.2185 7.60837 10.2927 7.50152 10.3866 7.41377C10.5802 7.23284 10.7345 7.01408 10.8401 6.77107C10.9456 6.52805 11 6.26595 11 6.00103C11 5.73611 10.9456 5.47402 10.8401 5.231C10.7345 4.98798 10.5802 4.76922 10.3866 4.58829H10.3908ZM4.81815 7.91445C4.72077 8.00847 4.59034 8.0605 4.45497 8.05932C4.31959 8.05815 4.19009 8.00386 4.09436 7.90816C3.99863 7.81246 3.94433 7.683 3.94315 7.54766C3.94198 7.41233 3.99402 7.28194 4.08807 7.18459L7.18599 4.08762C7.28336 3.99359 7.41379 3.94157 7.54917 3.94274C7.68454 3.94392 7.81404 3.9982 7.90977 4.0939C8.0055 4.1896 8.0598 4.31906 8.06098 4.4544C8.06216 4.58974 8.01011 4.72012 7.91606 4.81747L4.81815 7.91445ZM7.55102 7.8076C7.55102 7.96073 7.5056 8.11043 7.4205 8.23775C7.3354 8.36507 7.21444 8.46431 7.07293 8.52291C6.93141 8.58151 6.77569 8.59685 6.62545 8.56697C6.47522 8.5371 6.33722 8.46336 6.22891 8.35508C6.12059 8.2468 6.04683 8.10884 6.01695 7.95865C5.98706 7.80846 6.0024 7.65279 6.06102 7.51131C6.11964 7.36984 6.2189 7.24892 6.34627 7.16384C6.47363 7.07877 6.62337 7.03336 6.77654 7.03336C6.98195 7.03336 7.17894 7.11493 7.32418 7.26013C7.46943 7.40533 7.55102 7.60226 7.55102 7.8076ZM4.45311 4.19446C4.45311 4.04133 4.49853 3.89164 4.58363 3.76431C4.66873 3.63699 4.78969 3.53775 4.93121 3.47915C5.07272 3.42055 5.22845 3.40522 5.37868 3.43509C5.52891 3.46497 5.66691 3.53871 5.77523 3.64699C5.88354 3.75527 5.9573 3.89322 5.98718 4.04341C6.01707 4.1936 6.00173 4.34928 5.94311 4.49075C5.88449 4.63223 5.78523 4.75315 5.65786 4.83822C5.5305 4.9233 5.38076 4.96871 5.22759 4.96871C5.02218 4.96871 4.82519 4.88713 4.67995 4.74193C4.5347 4.59674 4.45311 4.3998 4.45311 4.19446Z" fill="white"/>
</g>
</svg>
